<?xml version="1.0" standalone="no"?><svg xmlns="http://www.w3.org/2000/svg" viewBox="0 0 1440 320"><path fill="#0099ff" fill-opacity="1" d="M0,192L17.1,170.7C34.3,149,69,107,103,101.3C137.1,96,171,128,206,122.7C240,117,274,75,309,90.7C342.9,107,377,181,411,202.7C445.7,224,480,192,514,170.7C548.6,149,583,139,617,122.7C651.4,107,686,85,720,80C754.3,75,789,85,823,101.3C857.1,117,891,139,926,176C960,213,994,267,1029,266.7C1062.9,267,1097,213,1131,170.7C1165.7,128,1200,96,1234,80C1268.6,64,1303,64,1337,69.3C1371.4,75,1406,85,1423,90.7L1440,96L1440,0L1422.9,0C1405.7,0,1371,0,1337,0C1302.9,0,1269,0,1234,0C1200,0,1166,0,1131,0C1097.1,0,1063,0,1029,0C994.3,0,960,0,926,0C891.4,0,857,0,823,0C788.6,0,754,0,720,0C685.7,0,651,0,617,0C582.9,0,549,0,514,0C480,0,446,0,411,0C377.1,0,343,0,309,0C274.3,0,240,0,206,0C171.4,0,137,0,103,0C68.6,0,34,0,17,0L0,0Z"></path></svg>