<?xml version="1.0" standalone="no"?><svg xmlns="http://www.w3.org/2000/svg" viewBox="0 0 1440 320"><path fill="#d75cf0" fill-opacity="1" d="M0,128L20,117.3C40,107,80,85,120,74.7C160,64,200,64,240,101.3C280,139,320,213,360,218.7C400,224,440,160,480,144C520,128,560,160,600,154.7C640,149,680,107,720,112C760,117,800,171,840,202.7C880,235,920,245,960,234.7C1000,224,1040,192,1080,186.7C1120,181,1160,203,1200,229.3C1240,256,1280,288,1320,272C1360,256,1400,192,1420,160L1440,128L1440,0L1420,0C1400,0,1360,0,1320,0C1280,0,1240,0,1200,0C1160,0,1120,0,1080,0C1040,0,1000,0,960,0C920,0,880,0,840,0C800,0,760,0,720,0C680,0,640,0,600,0C560,0,520,0,480,0C440,0,400,0,360,0C320,0,280,0,240,0C200,0,160,0,120,0C80,0,40,0,20,0L0,0Z"></path></svg>