<?xml version="1.0" standalone="no"?><svg xmlns="http://www.w3.org/2000/svg" viewBox="0 0 1440 320"><path fill="#9a5db9" fill-opacity="1" d="M0,96L15,133.3C30,171,60,245,90,234.7C120,224,150,128,180,101.3C210,75,240,117,270,154.7C300,192,330,224,360,202.7C390,181,420,107,450,112C480,117,510,203,540,245.3C570,288,600,288,630,256C660,224,690,160,720,160C750,160,780,224,810,250.7C840,277,870,267,900,234.7C930,203,960,149,990,133.3C1020,117,1050,139,1080,165.3C1110,192,1140,224,1170,208C1200,192,1230,128,1260,122.7C1290,117,1320,171,1350,197.3C1380,224,1410,224,1425,224L1440,224L1440,0L1425,0C1410,0,1380,0,1350,0C1320,0,1290,0,1260,0C1230,0,1200,0,1170,0C1140,0,1110,0,1080,0C1050,0,1020,0,990,0C960,0,930,0,900,0C870,0,840,0,810,0C780,0,750,0,720,0C690,0,660,0,630,0C600,0,570,0,540,0C510,0,480,0,450,0C420,0,390,0,360,0C330,0,300,0,270,0C240,0,210,0,180,0C150,0,120,0,90,0C60,0,30,0,15,0L0,0Z"></path></svg>